<svg width="40" height="92" viewBox="0 0 40 92" fill="none" xmlns="http://www.w3.org/2000/svg">
<rect width="40" height="92" rx="20" fill="#ACD1DB"/>
<path d="M23.75 43V40.75C23.75 40.5511 23.671 40.3603 23.5303 40.2197C23.3897 40.079 23.1989 40 23 40H15.5C15.1022 40 14.7206 40.158 14.4393 40.4393C14.158 40.7206 14 41.1022 14 41.5M14 41.5C14 41.8978 14.158 42.2794 14.4393 42.5607C14.7206 42.842 15.1022 43 15.5 43H24.5C24.6989 43 24.8897 43.079 25.0303 43.2197C25.171 43.3603 25.25 43.5511 25.25 43.75V46M14 41.5V50.5C14 50.8978 14.158 51.2794 14.4393 51.5607C14.7206 51.842 15.1022 52 15.5 52H24.5C24.6989 52 24.8897 51.921 25.0303 51.7803C25.171 51.6397 25.25 51.4489 25.25 51.25V49M26 46V49H23C22.6022 49 22.2206 48.842 21.9393 48.5607C21.658 48.2794 21.5 47.8978 21.5 47.5C21.5 47.1022 21.658 46.7206 21.9393 46.4393C22.2206 46.158 22.6022 46 23 46H26Z" stroke="#28635B" stroke-width="1.5" stroke-linecap="round" stroke-linejoin="round"/>
</svg>
