<svg width="42" height="92" viewBox="0 0 42 92" fill="none" xmlns="http://www.w3.org/2000/svg">
<rect width="42" height="92" rx="21" fill="#D9D6CE"/>
<path d="M20 43V46L21.5 47.5M13.2875 45.25C13.4556 43.6 14.2252 42.0697 15.4495 40.951C16.6739 39.8322 18.2673 39.2034 19.9256 39.1845C21.584 39.1655 23.1914 39.7578 24.4409 40.8483C25.6905 41.9388 26.4949 43.4511 26.7006 45.0968C26.9063 46.7425 26.499 48.4063 25.5563 49.7708C24.6135 51.1353 23.2015 52.105 21.5895 52.4949C19.9774 52.8848 18.2783 52.6675 16.8162 51.8846C15.3542 51.1016 14.2315 49.8078 13.6625 48.25M13.2875 52V48.25H17.0375" stroke="#28635B" stroke-width="1.5" stroke-linecap="round" stroke-linejoin="round"/>
</svg>
