<svg width="22" height="20" viewBox="0 0 22 20" fill="none" xmlns="http://www.w3.org/2000/svg">
<path fill-rule="evenodd" clip-rule="evenodd" d="M13.29 12C14.8597 12.0319 16.1896 13.1652 16.47 14.71L16.7 15.85C16.9272 16.834 16.7039 17.8679 16.0909 18.6704C15.4779 19.4729 14.539 19.9604 13.53 20H4.23999C3.22956 19.9639 2.28833 19.4774 1.67458 18.6739C1.06083 17.8704 0.839014 16.8344 1.06999 15.85L1.29999 14.71C1.57603 13.1668 2.90262 12.0327 4.46999 12H13.29ZM13.53 18.5C14.0353 18.4955 14.5107 18.2596 14.82 17.86C15.2164 17.3815 15.368 16.7459 15.23 16.14L15 15C14.8588 14.1556 14.1454 13.5256 13.29 13.49H4.46999C3.61691 13.5264 2.90678 14.1572 2.76999 15L2.58999 16.15C2.45531 16.7527 2.60664 17.3839 2.99999 17.86C3.29834 18.2462 3.75235 18.4806 4.23999 18.5H13.53Z" fill="#B5CDFE"/>
<path fill-rule="evenodd" clip-rule="evenodd" d="M9.37999 10H8.37999C6.17085 10 4.37999 8.20915 4.37999 6.00001V3.36001C4.37999 1.50434 5.88432 1.2586e-05 7.73999 1.2586e-05H9.99999C10.8954 -0.00801032 11.7567 0.342766 12.3918 0.974052C13.0268 1.60534 13.3827 2.46458 13.38 3.36001V6.00001C13.38 8.20915 11.5891 10 9.37999 10ZM7.73999 1.50001C6.71274 1.50001 5.87999 2.33276 5.87999 3.36001V6.00001C5.88535 7.37072 6.98937 8.48364 8.35999 8.50001H9.35999C10.023 8.50001 10.6589 8.23662 11.1278 7.76778C11.5966 7.29894 11.86 6.66305 11.86 6.00001V3.36001C11.86 2.33276 11.0272 1.50001 9.99999 1.50001H7.73999Z" fill="#B5CDFE"/>
<path d="M20.38 4.25001H19V2.88001C19 2.4658 18.6642 2.13001 18.25 2.13001C17.8358 2.13001 17.5 2.4658 17.5 2.88001V4.25001H16.14C15.7258 4.25001 15.39 4.5858 15.39 5.00001C15.39 5.41423 15.7258 5.75001 16.14 5.75001H17.51V7.12001C17.51 7.53423 17.8458 7.87001 18.26 7.87001C18.6742 7.87001 19.01 7.53423 19.01 7.12001V5.75001H20.38C20.7942 5.75001 21.13 5.41423 21.13 5.00001C21.13 4.5858 20.7942 4.25001 20.38 4.25001Z" fill="#B5CDFE"/>
</svg>
